<?xml version="1.0" encoding="utf-8"?>
<!DOCTYPE svg PUBLIC "-//W3C//DTD SVG 1.1//EN" "http://www.w3.org/Graphics/SVG/1.1/DTD/svg11.dtd">
<svg version="1.1" id="Layer_1" xmlns="http://www.w3.org/2000/svg" xmlns:xlink="http://www.w3.org/1999/xlink" x="0px" y="0px"
	 viewBox="0 0 50 50" enable-background="new 0 0 50 50" xml:space="preserve">
<g>
	<path fill="currentColor" d="M38.5,18.4c-0.1-0.2-0.3-0.6-0.3-0.8L37.3,6.9c0-0.4-0.2-0.5-0.4-0.5c-0.1,0-0.2,0-0.4,0.2l-7,6.5
		c-0.1,0.2-0.5,0.3-0.7,0.3h-7.5c-0.2,0-0.5-0.1-0.7-0.3l-7-6.5c-0.2-0.2-0.3-0.2-0.4-0.2c-0.2,0-0.4,0.2-0.4,0.5l-0.9,10.6
		c0,0.2-0.2,0.6-0.3,0.8L7.6,24c-0.2,0.3-0.2,0.8-0.1,1.1l3.5,8c0.1,0.3,0.4,0.6,0.7,0.8l12.7,8.7c0.1,0.1,0.3,0.2,0.5,0.2
		c0.2,0,0.4-0.1,0.5-0.2L38.1,34c0.3-0.1,0.6-0.5,0.7-0.8l3.5-8c0.1-0.3,0.1-0.8-0.1-1.1L38.5,18.4z"/>
</g>
</svg>
