<svg xmlns="http://www.w3.org/2000/svg" viewBox="0 0 100 100" enable-background="new 0 0 100 100"><path fill="#000" d="M50 100c27.6 0 50-22.4 50-50s-22.4-50-50-50-50 22.4-50 50 22.4 50 50 50"/><path fill="currentColor" d="M65.3 25h-30.6c-5.3 0-9.7 4.3-9.7 9.7v30.7c0 5.3 4.3 9.7 9.7 9.7h30.7c5.3 0 9.7-4.3 9.7-9.7v-30.7c-.1-5.4-4.4-9.7-9.8-9.7zm2.8 5.8h1.1v8.5h-8.4v-8.5h7.3zm-25.2 14.1c1.6-2.2 4.2-3.7 7.1-3.7 2.9 0 5.5 1.5 7.1 3.7 1 1.4 1.7 3.2 1.7 5.1 0 4.9-4 8.8-8.8 8.8s-8.8-3.9-8.8-8.8c0-1.9.6-3.7 1.7-5.1zm27.2 20.4c0 2.6-2.1 4.8-4.8 4.8h-30.6c-2.6 0-4.8-2.1-4.8-4.8v-20.4h7.5c-.6 1.6-1 3.3-1 5.1 0 7.5 6.1 13.7 13.7 13.7 7.5 0 13.7-6.1 13.7-13.7 0-1.8-.4-3.5-1-5.1h7.5v20.4z"/></svg>
