<svg xmlns="http://www.w3.org/2000/svg" viewBox="0 0 550 550" enable-background="new 0 0 550 550"><g fill="currentColor"><path d="M76.5 111.5c0 4.6 2.5 6.9 7.9 6.9s7.4-2.3 7.4-6.9v-43.7c0-1.7.6-2.4 2.2-2.4h8c1.7 0 2.2.7 2.2 2.4v45.9c0 7.7-4.2 15-19.8 15-15.4 0-20.1-7.3-20.1-15v-5.5c0-1.7.6-2.3 2.3-2.3h7.7c1.7 0 2.2.6 2.2 2.3v3.3zM162 65.4c1.7 0 2.5.7 2.9 2.3l17.1 57.9c.5 1.5-.1 2.3-1.7 2.3h-8.3c-1.6 0-2.2-.8-2.7-2.3l-3.2-11.2h-17.1l-3.2 11.2c-.5 1.5-1.1 2.3-2.8 2.3h-7.4c-1.7 0-2.2-.8-1.7-2.3l17.2-57.9c.5-1.6 1.2-2.3 2.8-2.3h8.1zm-1.6 29c-1.2-3.8-2.6-15.5-2.7-16.7-.2 1.2-1.7 12.8-2.8 16.6l-3.1 10.3h11.7l-3.1-10.2zM254.1 113.7c0 7.7-5 15-21.6 15s-21.6-7.3-21.6-15v-34c0-7.7 5-15 21.6-15s21.6 7.3 21.6 15v4.4c0 1.7-.6 2.3-2.1 2.3h-7.6c-1.7 0-2.3-.6-2.3-2.3v-2.2c0-4.6-3.2-6.9-9.4-6.9s-9.3 2.3-9.3 6.9v29.6c0 4.6 3.1 6.9 9.3 6.9 6.2 0 9.4-2.3 9.4-6.9v-3.5c0-1.7.6-2.3 2.3-2.3h7.6c1.6 0 2.1.6 2.1 2.3v5.7zM286.2 79.7c0-7.7 5.7-15 22.3-15s22.3 7.3 22.3 15v34c0 7.7-5.7 15-22.3 15s-22.3-7.3-22.3-15v-34zm32.2 2.2c0-4.6-3.8-6.9-9.9-6.9-6.2 0-9.8 2.3-9.8 6.9v29.6c0 4.6 3.7 6.9 9.8 6.9 6.2 0 9.9-2.3 9.9-6.9v-29.6zM368 127.9c-1.7 0-2.2-.7-2.2-2.4v-57.7c0-1.7.6-2.4 2.2-2.4h16.8c16.6 0 22.2 6.2 22.2 13.9v5.4c0 4.5-2.1 8.1-6.9 10.3 6.2 2.2 9.7 6.1 9.7 11.1v7.3c0 7.7-5.6 14.5-22.2 14.5h-19.6zm10.2-52.6v16h6.9c5.9 0 9.7-2.2 9.7-6.9v-3.2c0-4.6-3.8-5.9-9.9-5.9h-6.7zm0 25.4v17.3h9.5c6.2 0 10-2.2 10-6.8v-4.1c0-4-3.9-6.3-10-6.3h-9.5zM472.6 81.3c0-4.5-3-6.6-8.9-6.6-6 0-9 2.1-9 6.6v1.4c0 3.2 2.3 4.4 3.8 5l16 5.7c6.2 2.2 10.8 6.4 10.8 13.2v7.1c0 7.7-5.4 15-21.9 15-16.4 0-22-7.3-22-15v-5.8c0-1.7.6-2.4 2.2-2.4h7.7c1.7 0 2.2.7 2.2 2.4v4.1c0 4.5 3.5 6.6 9.7 6.6 6.2 0 9.7-2.1 9.7-6.6v-2.9c0-3.8-3.7-5.2-7.8-6.8l-14.1-5.4c-4.4-1.7-8.4-6.3-8.4-11.9v-5.4c0-7.7 4.8-15 20.9-15 16.1 0 21.2 7.3 21.2 15v3.8c0 1.6-.6 2.3-2.3 2.3h-7.7c-1.6 0-2.1-.7-2.1-2.3v-2.1zM67.1 247.4c-1.7 0-2.2-.7-2.2-2.4v-57.7c0-1.7.6-2.4 2.2-2.4h31.4c1.6 0 2.3.6 2.3 2.2v5.8c0 1.7-.7 2.3-2.3 2.3h-21.2v14.9h19.7c1.7 0 2.4.6 2.4 2.2v5.5c0 1.6-.7 2.2-2.4 2.2h-19.7v17.1h22.1c1.7 0 2.3.6 2.3 2.2v5.8c0 1.7-.6 2.3-2.3 2.3h-32.3zM179.6 245.1c0 1.6-.6 2.3-2.2 2.3h-7.3c-1.2 0-1.7-.3-2.1-1.1l-17.7-30.4c-2.5-4.1-3.6-7.2-3.7-7.4v36.7c0 1.6-.6 2.3-2.2 2.3h-7.3c-1.7 0-2.2-.7-2.2-2.3v-57.9c0-1.6.6-2.3 2.2-2.3h7.3c1 0 1.6.3 1.9.9l18.5 31.7c1.6 2.7 3.1 6.4 3.1 6.4v-36.8c0-1.6.6-2.3 2.2-2.3h7.3c1.7 0 2.2.7 2.2 2.3v57.9zM241.4 186.3l18.4 59.7c.3.9-.1 1.4-1.1 1.4h-4c-.9 0-1.4-.5-1.7-1.4l-5.1-16.4h-21l-5 16.4c-.3.9-.6 1.4-1.6 1.4h-3.7c-.9 0-1.3-.5-1-1.4l18.3-59.7c.3-.9.7-1.4 1.7-1.4h4c1.1 0 1.5.5 1.8 1.4zm-1.5 16.6c-.9-2.9-2.1-10.1-2.3-11.1-.1.6-1.2 7.4-2.3 10.9l-6.8 21.7h18.1l-6.7-21.5zM304.3 221.9v24.1c0 .9-.3 1.4-1.3 1.4h-3.9c-.9 0-1.3-.5-1.3-1.4v-59.7c0-.9.4-1.4 1.2-1.4h18.2c15.3 0 19.9 6.1 19.9 13.4v10.3c0 5.7-2.8 10.7-11.4 12.5l11.9 24.9c.4.8-.3 1.4-1.3 1.4h-3.9c-1 0-1.2-.6-1.7-1.4l-11.4-24.1h-15zm0-31.4v25.9h13c9.8 0 13.4-3.5 13.4-8.9v-8.2c0-5.3-3.6-8.8-13.4-8.8h-13zM404.6 247.7l12.3 11.3c.7.6.8 1.2.2 1.9l-2 2.1c-.5.6-1.2.6-1.8.1l-16.3-15c-14-.4-18.5-6.3-18.5-13.4v-37.1c0-7.4 4.8-13.4 19.9-13.4 15.3 0 19.9 6.1 19.9 13.4v37.1c0 6.3-3.4 11.6-13.7 13zm-6.2-5c9.7 0 13.4-3.5 13.4-8.9v-35.3c0-5.4-3.7-8.9-13.4-8.9s-13.3 3.5-13.3 8.9v35.3c-.1 5.4 3.6 8.9 13.3 8.9zM71.2 353.2c0 5.3 3.6 8.8 13.2 8.8 9.8 0 13.5-3.5 13.5-8.8v-47.4c0-.9.4-1.4 1.3-1.4h3.9c1 0 1.3.5 1.3 1.4v48.4c0 7.4-4.7 13.4-19.9 13.4-15.1 0-19.8-6.1-19.8-13.4v-48.4c0-.9.4-1.4 1.3-1.4h4c.9 0 1.3.5 1.3 1.4v47.4zM154.6 365.5c0 .9-.3 1.4-1.3 1.4h-3.9c-.9 0-1.3-.5-1.3-1.4v-59.7c0-.9.4-1.4 1.3-1.4h3.9c1 0 1.3.5 1.3 1.4v59.7zM231.8 304.4c.9 0 1.4.4 1.4 1.4v2.8c0 1-.5 1.4-1.4 1.4h-15.8v55.5c0 .9-.4 1.4-1.3 1.4h-4c-1 0-1.4-.5-1.4-1.4v-55.5h-15.8c-1 0-1.4-.4-1.4-1.4v-2.8c0-1 .4-1.4 1.4-1.4h38.3zM272 366.9c-.8 0-1.2-.5-1.2-1.4v-59.7c0-.9.4-1.4 1.3-1.4h31.3c.9 0 1.4.4 1.4 1.4v2.8c0 1-.5 1.4-1.4 1.4h-26.2v21.4h24.5c1 0 1.4.4 1.4 1.4v2.7c0 1-.4 1.4-1.4 1.4h-24.5v24.4h27.3c.9 0 1.4.4 1.4 1.3v2.9c0 1-.5 1.4-1.4 1.4h-32.5zM379.5 304.4c.9 0 1.4.4 1.4 1.4v2.8c0 1-.5 1.4-1.4 1.4h-15.8v55.5c0 .9-.4 1.4-1.3 1.4h-4c-1 0-1.4-.5-1.4-1.4v-55.5h-15.8c-1 0-1.4-.4-1.4-1.4v-2.8c0-1 .4-1.4 1.4-1.4h38.3zM71.2 472.7c0 5.3 3.6 8.8 13.2 8.8 9.8 0 13.5-3.5 13.5-8.8v-47.4c0-.9.4-1.4 1.3-1.4h3.9c1 0 1.3.5 1.3 1.4v48.4c0 7.4-4.7 13.4-19.9 13.4-15.1 0-19.8-6.1-19.8-13.4v-48.4c0-.9.4-1.4 1.3-1.4h4c.9 0 1.3.5 1.3 1.4v47.4zM154.6 460.9v24.1c0 .9-.3 1.4-1.3 1.4h-3.9c-.9 0-1.3-.5-1.3-1.4v-59.7c0-.9.4-1.4 1.2-1.4h18.2c15.3 0 19.9 6.1 19.9 13.4v10.3c0 5.7-2.8 10.7-11.4 12.5l12 24.9c.4.8-.3 1.4-1.3 1.4h-3.9c-1 0-1.2-.6-1.7-1.4l-11.4-24.1h-15.100000000000001zm0-31.4v25.9h13c9.8 0 13.4-3.5 13.4-8.9v-8.2c0-5.3-3.6-8.8-13.4-8.8h-13zM249.4 425.2l18.4 59.7c.3.9-.1 1.4-1.1 1.4h-4c-.9 0-1.4-.5-1.7-1.4l-5.1-16.4h-21l-5 16.4c-.3.9-.6 1.4-1.6 1.4h-3.7c-.9 0-1.3-.5-1-1.4l18.3-59.7c.3-.9.7-1.4 1.7-1.4h4c1.1.1 1.5.5 1.8 1.4zm-1.4 16.7c-.9-2.9-2.1-10.1-2.3-11.1-.1.6-1.2 7.4-2.3 10.9l-6.8 21.7h18.1l-6.7-21.5z"/></g></svg>
