<svg xmlns="http://www.w3.org/2000/svg" viewBox="0 0 1654 185" enable-background="new 0 0 1654 185">
<defs>
<filter id="a" height="130%">
    <feGaussianBlur in="SourceAlpha" stdDeviation="3" />
    <feOffset dx="2" dy="2" />
    <feMerge>
        <feMergeNode />
        <feMergeNode in="SourceGraphic" />
    </feMerge>
</filter>
</defs>
<g fill="currentColor" filter="url(#a)"><path d="M136.9 107.5c0 4.6 2.5 6.9 7.9 6.9s7.3-2.3 7.3-6.9v-43.5c0-1.6.6-2.4 2.2-2.4h8c1.6 0 2.2.7 2.2 2.4v45.7c0 7.7-4.2 14.9-19.7 14.9-15.4 0-20.1-7.2-20.1-14.9v-5.5c0-1.6.6-2.3 2.3-2.3h7.7c1.6 0 2.2.6 2.2 2.3v3.3zM222.1 61.6c1.6 0 2.5.7 2.9 2.3l17 57.7c.5 1.5-.1 2.3-1.6 2.3h-8.2c-1.6 0-2.2-.8-2.7-2.3l-3.2-11.2h-17l-3.2 11.2c-.5 1.5-1.1 2.3-2.7 2.3h-7.4c-1.6 0-2.2-.8-1.7-2.3l17.1-57.7c.5-1.6 1.2-2.3 2.8-2.3h7.9zm-1.5 28.9c-1.2-3.8-2.6-15.5-2.7-16.7-.2 1.2-1.7 12.7-2.8 16.6l-3.1 10.3h11.6l-3-10.2zM313.9 109.7c0 7.7-4.9 14.9-21.5 14.9s-21.5-7.2-21.5-14.9v-33.9c0-7.7 4.9-14.9 21.5-14.9s21.5 7.2 21.5 14.9v4.4c0 1.6-.5 2.3-2.1 2.3h-7.6c-1.6 0-2.3-.6-2.3-2.3v-2.2c0-4.6-3.2-6.9-9.3-6.9-6.1 0-9.3 2.3-9.3 6.9v29.5c0 4.6 3.1 6.9 9.3 6.9 6.1 0 9.3-2.3 9.3-6.9v-3.5c0-1.6.6-2.3 2.3-2.3h7.6c1.6 0 2.1.6 2.1 2.3v5.7zM345.9 75.8c0-7.7 5.7-14.9 22.3-14.9s22.3 7.2 22.3 14.9v33.9c0 7.7-5.7 14.9-22.3 14.9s-22.3-7.2-22.3-14.9v-33.9zm32.2 2.2c0-4.6-3.8-6.9-9.9-6.9-6.1 0-9.8 2.3-9.8 6.9v29.5c0 4.6 3.7 6.9 9.8 6.9 6.1 0 9.9-2.3 9.9-6.9v-29.5zM427.4 123.9c-1.6 0-2.2-.7-2.2-2.4v-57.5c0-1.6.5-2.4 2.2-2.4h16.8c16.6 0 22.2 6.1 22.2 13.8v5.4c0 4.5-2.1 8.1-6.9 10.3 6.2 2.2 9.7 6 9.7 11.1v7.2c0 7.7-5.6 14.5-22.2 14.5h-19.6zm10.2-52.4v15.9h6.9c5.9 0 9.6-2.2 9.6-6.9v-3.2c0-4.6-3.8-5.9-9.9-5.9h-6.6zm0 25.3v17.2h9.4c6.1 0 10-2.2 10-6.8v-4.1c0-3.9-3.8-6.3-10-6.3h-9.4zM531.8 77.5c0-4.5-3-6.6-8.9-6.6-6 0-9 2.1-9 6.6v1.4c0 3.2 2.3 4.4 3.8 4.9l15.9 5.7c6.2 2.2 10.8 6.4 10.8 13.2v7.1c0 7.7-5.4 14.9-21.8 14.9-16.3 0-21.9-7.2-21.9-14.9v-5.8c0-1.6.6-2.4 2.2-2.4h7.7c1.6 0 2.2.7 2.2 2.4v4.1c0 4.5 3.5 6.6 9.7 6.6 6.1 0 9.7-2.1 9.7-6.6v-2.9c0-3.8-3.7-5.2-7.8-6.8l-14.2-5.4c-4.4-1.6-8.3-6.3-8.3-11.8v-5.4c0-7.7 4.8-14.9 20.8-14.9s21.2 7.2 21.2 14.9v3.8c0 1.6-.6 2.3-2.3 2.3h-7.7c-1.6 0-2.1-.7-2.1-2.3v-2.1zM580.1 123.9c-1.6 0-2.2-.7-2.2-2.4v-57.5c0-1.6.5-2.4 2.2-2.4h31.3c1.6 0 2.3.5 2.3 2.2v5.8c0 1.6-.7 2.3-2.3 2.3h-21.2v14.8h19.6c1.6 0 2.4.5 2.4 2.2v5.5c0 1.6-.7 2.2-2.4 2.2h-19.6v17h22.1c1.6 0 2.3.5 2.3 2.2v5.8c0 1.6-.6 2.3-2.3 2.3h-32.2zM692.2 121.6c0 1.6-.5 2.3-2.2 2.3h-7.2c-1.2 0-1.6-.3-2.1-1.1l-17.7-30.3c-2.5-4.1-3.6-7.1-3.7-7.4v36.6c0 1.6-.6 2.3-2.2 2.3h-7.2c-1.6 0-2.2-.7-2.2-2.3v-57.8c0-1.6.5-2.3 2.2-2.3h7.2c1 0 1.6.3 1.9.9l18.4 31.6c1.6 2.7 3.1 6.4 3.1 6.4v-36.6c0-1.6.5-2.3 2.2-2.3h7.2c1.6 0 2.2.7 2.2 2.3v57.7zM756.6 61.6c.7 0 1.2.4 1.4 1.1l18.6 60.1c.3.7-.1 1.1-.8 1.1h-2.8c-.7 0-1.1-.4-1.3-1.1l-5.6-17.8h-22.1l-5.4 17.8c-.2.7-.5 1.1-1.3 1.1h-2.7c-.7 0-1.1-.4-.8-1.1l18.6-60.1c.2-.7.6-1.1 1.4-1.1h2.8zm.8 14.9c-.9-3-2.1-8.8-2.3-9.7-.1.6-1.2 6.5-2.1 9.5l-7.8 24.7h19.8l-7.6-24.5zM820.1 98.1v24.7c0 .7-.3 1.1-1 1.1h-2.7c-.7 0-1.1-.4-1.1-1.1v-60.1c0-.7.4-1.1 1-1.1h17.9c14.7 0 19.1 5.8 19.1 12.9v10.6c0 5.9-2.8 10.7-11.7 12.4l12.6 25.3c.3.6-.2 1.1-1 1.1h-2.7c-.9 0-1.1-.5-1.4-1.1l-12.2-24.8c-.9.1-1.8.1-2.7.1h-14.1zm0-32.3v28.1h14c10.7 0 14.3-3.8 14.3-9.4v-9.3c0-5.6-3.6-9.4-14.3-9.4h-14zM933.8 111.7c0 6.2-3.5 11.5-14 12.6l13.1 12c.5.5.6.9.1 1.5l-1.5 1.6c-.4.5-.9.5-1.5.1l-15.9-14.8c-14.3-.1-18.6-5.8-18.6-12.9v-38c0-7.1 4.4-12.9 19.1-12.9 14.7 0 19.2 5.8 19.2 12.9v37.9zm-33.4-.6c0 5.6 3.6 9.4 14.2 9.4 10.7 0 14.3-3.8 14.3-9.4v-36.7c0-5.6-3.6-9.4-14.3-9.4-10.6 0-14.2 3.8-14.2 9.4v36.7zM982 111c0 5.6 3.6 9.4 14.3 9.4 10.7 0 14.3-3.8 14.3-9.4v-48.3c0-.7.4-1.1 1.1-1.1h2.7c.7 0 1 .4 1 1.1v49c0 7.1-4.4 12.9-19.1 12.9-14.7 0-19.1-5.8-19.1-12.9v-49c0-.7.4-1.1 1.1-1.1h2.7c.7 0 1 .4 1 1.1v48.3zM1064.8 122.8c0 .7-.3 1.1-1 1.1h-2.7c-.7 0-1.1-.4-1.1-1.1v-60.1c0-.7.4-1.1 1.1-1.1h2.7c.7 0 1 .4 1 1.1v60.1zM1142.1 61.6c.7 0 1.1.3 1.1 1.1v2c0 .8-.4 1.1-1.1 1.1h-16.7v57c0 .7-.3 1.1-1 1.1h-2.7c-.8 0-1.1-.4-1.1-1.1v-57h-16.6c-.8 0-1.1-.3-1.1-1.1v-2c0-.8.3-1.1 1.1-1.1h38.1zM1182.3 123.9c-.6 0-1-.4-1-1.1v-60.1c0-.7.4-1.1 1.1-1.1h31.2c.7 0 1.1.3 1.1 1.1v2c0 .8-.4 1.1-1.1 1.1h-27.5v23.3h25.8c.7 0 1.1.3 1.1 1.1v1.9c0 .7-.4 1.1-1.1 1.1h-25.8v26.5h28.6c.7 0 1.1.3 1.1 1.1v2c0 .8-.4 1.1-1.1 1.1h-32.4zM1289.3 61.6c.7 0 1.1.3 1.1 1.1v2c0 .8-.4 1.1-1.1 1.1h-16.7v57c0 .7-.3 1.1-1 1.1h-2.7c-.8 0-1.1-.4-1.1-1.1v-57h-16.6c-.8 0-1.1-.3-1.1-1.1v-2c0-.8.3-1.1 1.1-1.1h38.1zM1332.9 111c0 5.6 3.6 9.4 14.3 9.4s14.3-3.8 14.3-9.4v-48.3c0-.7.4-1.1 1.1-1.1h2.7c.7 0 1 .4 1 1.1v49c0 7.1-4.4 12.9-19.1 12.9-14.7 0-19.1-5.8-19.1-12.9v-49c0-.7.4-1.1 1.1-1.1h2.7c.7 0 1 .4 1 1.1v48.3zM1415.7 98.1v24.7c0 .7-.3 1.1-1 1.1h-2.7c-.7 0-1.1-.4-1.1-1.1v-60.1c0-.7.4-1.1 1-1.1h17.9c14.7 0 19.1 5.8 19.1 12.9v10.6c0 5.9-2.8 10.7-11.7 12.4l12.6 25.3c.3.6-.2 1.1-1 1.1h-2.7c-.9 0-1.1-.5-1.4-1.1l-12.3-24.8c-.9.1-1.8.1-2.7.1h-14zm0-32.3v28.1h14c10.7 0 14.3-3.8 14.3-9.4v-9.3c0-5.6-3.6-9.4-14.3-9.4h-14zM1508.5 61.6c.7 0 1.2.4 1.4 1.1l18.6 60.1c.3.7-.1 1.1-.8 1.1h-2.8c-.7 0-1.1-.4-1.3-1.1l-5.6-17.8h-22.1l-5.4 17.8c-.2.7-.5 1.1-1.3 1.1h-2.7c-.7 0-1.1-.4-.8-1.1l18.6-60.1c.2-.7.6-1.1 1.4-1.1h2.8zm.7 14.9c-.9-3-2.1-8.8-2.3-9.7-.1.6-1.2 6.5-2.1 9.5l-7.8 24.7h19.8l-7.6-24.5z"/></g></svg>
