<?xml version="1.0" standalone="no"?>
<!DOCTYPE svg PUBLIC "-//W3C//DTD SVG 20010904//EN"
 "http://www.w3.org/TR/2001/REC-SVG-20010904/DTD/svg10.dtd">
<svg version="1.0" xmlns="http://www.w3.org/2000/svg"
 width="808.000000pt" height="808.000000pt" viewBox="0 0 808.000000 808.000000"
 preserveAspectRatio="xMidYMid meet">
<metadata>
Created by potrace 1.11, written by Peter Selinger 2001-2013
</metadata>
<g transform="translate(0.000000,808.000000) scale(0.100000,-0.100000)"
fill="#000000" stroke="none">
<path d="M7081 7966 c-13 -16 -661 -2101 -661 -2127 0 -22 20 -29 86 -29 39 0
59 5 72 18 9 10 59 156 111 330 l94 312 378 0 378 0 9 -32 c46 -163 188 -597
200 -610 19 -22 143 -26 160 -5 8 10 -72 282 -315 1068 -179 579 -332 1062
-341 1072 -20 22 -153 25 -171 3z m175 -566 c30 -102 96 -320 147 -485 l93
-300 -329 -3 c-182 -1 -332 0 -334 2 -3 2 58 204 135 448 77 243 149 488 161
543 12 55 25 111 28 125 5 19 11 5 25 -60 10 -47 44 -168 74 -270z"/>
<path d="M3650 7771 c-47 -10 -78 -27 -118 -64 -67 -64 -62 145 -62 -2811 0
-1691 -4 -2729 -10 -2812 -35 -457 -233 -664 -682 -713 -283 -31 -548 4 -747
100 -194 94 -302 238 -358 479 -11 48 -17 156 -22 415 -6 342 -7 351 -30 398
-31 64 -77 93 -167 107 -102 16 -1075 8 -1126 -8 -50 -17 -94 -55 -121 -106
-22 -40 -22 -49 -25 -486 -4 -465 3 -583 39 -765 44 -221 149 -460 273 -626
92 -122 264 -284 392 -368 318 -210 717 -335 1239 -388 311 -31 821 -21 1125
23 764 110 1270 416 1524 921 62 124 92 206 126 344 58 237 55 66 55 3249 0
2783 -1 2937 -18 2981 -20 54 -57 91 -112 116 -37 17 -83 18 -590 20 -302 0
-566 -2 -585 -6z"/>
</g>
</svg>
