<svg version="1" xmlns="http://www.w3.org/2000/svg" width="1077.333" height="1077.333" viewBox="0 0 808.000000 808.000000"><path d="M708.1 11.4C706.8 13 642 221.5 642 224.1c0 2.2 2 2.9 8.6 2.9 3.9 0 5.9-.5 7.2-1.8.9-1 5.9-15.6 11.1-33l9.4-31.2h75.6l.9 3.2c4.6 16.3 18.8 59.7 20 61 1.9 2.2 14.3 2.6 16 .5.8-1-7.2-28.2-31.5-106.8C741.4 61 726.1 12.7 725.2 11.7c-2-2.2-15.3-2.5-17.1-.3zM725.6 68c3 10.2 9.6 32 14.7 48.5l9.3 30-32.9.3c-18.2.1-33.2 0-33.4-.2-.3-.2 5.8-20.4 13.5-44.8 7.7-24.3 14.9-48.8 16.1-54.3 1.2-5.5 2.5-11.1 2.8-12.5.5-1.9 1.1-.5 2.5 6 1 4.7 4.4 16.8 7.4 27zM365 30.9c-4.7 1-7.8 2.7-11.8 6.4-6.7 6.4-6.2-14.5-6.2 281.1 0 169.1-.4 272.9-1 281.2-3.5 45.7-23.3 66.4-68.2 71.3-28.3 3.1-54.8-.4-74.7-10-19.4-9.4-30.2-23.8-35.8-47.9-1.1-4.8-1.7-15.6-2.2-41.5-.6-34.2-.7-35.1-3-39.8-3.1-6.4-7.7-9.3-16.7-10.7-10.2-1.6-107.5-.8-112.6.8-5 1.7-9.4 5.5-12.1 10.6-2.2 4-2.2 4.9-2.5 48.6-.4 46.5.3 58.3 3.9 76.5 4.4 22.1 14.9 46 27.3 62.6 9.2 12.2 26.4 28.4 39.2 36.8 31.8 21 71.7 33.5 123.9 38.8 31.1 3.1 82.1 2.1 112.5-2.3 76.4-11 127-41.6 152.4-92.1 6.2-12.4 9.2-20.6 12.6-34.4 5.8-23.7 5.5-6.6 5.5-324.9 0-278.3-.1-293.7-1.8-298.1-2-5.4-5.7-9.1-11.2-11.6-3.7-1.7-8.3-1.8-59-2-30.2 0-56.6.2-58.5.6z"/></svg>