<?xml version="1.0" encoding="UTF-8"?><!DOCTYPE svg PUBLIC "-//W3C//DTD SVG 1.1//EN" "http://www.w3.org/Graphics/SVG/1.1/DTD/svg11.dtd"><svg xmlns="http://www.w3.org/2000/svg"><symbol id="social-facebook" viewBox="0 0 100 100"><path class="social__icon--background" d="M50 100c27.6 0 50-22.4 50-50S77.6 0 50 0 0 22.4 0 50s22.4 50 50 50"/><path class="social__icon--symbol" fill="#fff" d="M37.9 41.5h5.2v-5c0-2.2.1-5.6 1.7-7.7 1.7-2.2 4-3.8 8-3.8 6.5 0 9.3.9 9.3.9l-1.3 7.7s-2.2-.6-4.2-.6-3.8.7-3.8 2.7v5.8H61l-.5 7.5h-7.7v26h-9.7V49h-5.2v-7.5z"/></symbol><symbol id="social-instagram" viewBox="0 0 100 100"><path class="social__icon--background" d="M50 100c27.6 0 50-22.4 50-50S77.6 0 50 0 0 22.4 0 50s22.4 50 50 50"/><path class="social__icon--symbol" fill="#fff" d="M65.3 25H34.7c-5.3 0-9.7 4.3-9.7 9.7v30.7c0 5.3 4.3 9.7 9.7 9.7h30.7c5.3 0 9.7-4.3 9.7-9.7V34.7c-.1-5.4-4.4-9.7-9.8-9.7zm2.8 5.8h1.1v8.5h-8.4v-8.5h7.3zM42.9 44.9c1.6-2.2 4.2-3.7 7.1-3.7 2.9 0 5.5 1.5 7.1 3.7 1 1.4 1.7 3.2 1.7 5.1 0 4.9-4 8.8-8.8 8.8s-8.8-3.9-8.8-8.8c0-1.9.6-3.7 1.7-5.1zm27.2 20.4c0 2.6-2.1 4.8-4.8 4.8H34.7c-2.6 0-4.8-2.1-4.8-4.8V44.9h7.5c-.6 1.6-1 3.3-1 5.1 0 7.5 6.1 13.7 13.7 13.7 7.5 0 13.7-6.1 13.7-13.7 0-1.8-.4-3.5-1-5.1h7.5v20.4z"/></symbol><symbol id="social-pinterest" viewBox="0 0 100 100"><path class="social__icon--background" d="M50.1 99.9c27.6 0 50-22.4 50-50s-22.4-50-50-50-50 22.4-50 50 22.4 50 50 50"/><path class="social__icon--symbol" fill="#fff" d="M50.1 24.7c-13.8 0-25 11.2-25 25 0 10.2 6.2 19 15 22.9-.1-1.7 0-3.8.4-5.7.5-2 3.2-13.6 3.2-13.6s-.8-1.6-.8-4c0-3.7 2.1-6.5 4.8-6.5 2.3 0 3.4 1.7 3.4 3.8 0 2.3-1.5 5.7-2.2 8.9-.6 2.7 1.3 4.8 3.9 4.8 4.7 0 7.9-6.1 7.9-13.3 0-5.5-3.7-9.6-10.4-9.6-7.6 0-12.3 5.7-12.3 12 0 2.2.6 3.7 1.6 4.9.5.5.5.8.4 1.4-.1.5-.4 1.6-.5 2-.2.6-.7.9-1.3.6-3.5-1.4-5.1-5.3-5.1-9.6 0-7.1 6-15.6 17.9-15.6 9.5 0 15.8 6.9 15.8 14.3 0 9.8-5.5 17.1-13.5 17.1-2.7 0-5.2-1.5-6.1-3.1 0 0-1.5 5.8-1.8 6.9-.4 2-1.4 3.9-2.4 5.4 2.2.7 4.6 1 7.1 1 13.8 0 25-11.2 25-25s-11.2-25-25-25"/></symbol><symbol id="social-vimeo" viewBox="0 0 100 100"><path class="social__icon--background" d="M50 100c27.6 0 50-22.4 50-50S77.6 0 50 0 0 22.4 0 50s22.4 50 50 50"/><path class="social__icon--symbol" fill="#fff" d="M75 38.4c-.2 4.9-3.6 11.5-10.2 19.9-6.8 8.9-12.6 13.3-17.3 13.3-2.9 0-5.4-2.7-7.4-8.1l-4-14.8c-1.5-5.4-3.1-8.1-4.8-8.1-.4 0-1.7.8-3.9 2.4L25 40c2.5-2.2 4.9-4.3 7.3-6.5 3.3-2.8 5.7-4.3 7.4-4.5 3.9-.4 6.3 2.3 7.2 8 1 6.1 1.6 9.9 2 11.4 1.1 5.1 2.4 7.6 3.7 7.6 1 0 2.6-1.6 4.7-4.9 2.1-3.3 3.2-5.8 3.4-7.5.3-2.8-.8-4.3-3.4-4.3-1.2 0-2.4.3-3.7.8 2.5-8 7.2-11.9 14.1-11.7 5.1.2 7.6 3.5 7.3 10z"/></symbol><symbol id="symbols-download" viewBox="0 0 30 30"><path d="M16 15h14l-7 15-7-15zm5-13h4v13h-4zm-7 13H0L7 0l7 15zM9 28H5V15h4z" fill="currentColor" fill-rule="evenodd"/></symbol><symbol id="jarquitetura-logo-type-collapsed" viewBox="0 0 550 550"><path d="M76.5 111.5c0 4.6 2.5 6.9 7.9 6.9s7.4-2.3 7.4-6.9V67.8c0-1.7.6-2.4 2.2-2.4h8c1.7 0 2.2.7 2.2 2.4v45.9c0 7.7-4.2 15-19.8 15-15.4 0-20.1-7.3-20.1-15v-5.5c0-1.7.6-2.3 2.3-2.3h7.7c1.7 0 2.2.6 2.2 2.3v3.3zM162 65.4c1.7 0 2.5.7 2.9 2.3l17.1 57.9c.5 1.5-.1 2.3-1.7 2.3H172c-1.6 0-2.2-.8-2.7-2.3l-3.2-11.2H149l-3.2 11.2c-.5 1.5-1.1 2.3-2.8 2.3h-7.4c-1.7 0-2.2-.8-1.7-2.3l17.2-57.9c.5-1.6 1.2-2.3 2.8-2.3h8.1zm-1.6 29c-1.2-3.8-2.6-15.5-2.7-16.7-.2 1.2-1.7 12.8-2.8 16.6l-3.1 10.3h11.7l-3.1-10.2zm93.7 19.3c0 7.7-5 15-21.6 15s-21.6-7.3-21.6-15v-34c0-7.7 5-15 21.6-15s21.6 7.3 21.6 15v4.4c0 1.7-.6 2.3-2.1 2.3h-7.6c-1.7 0-2.3-.6-2.3-2.3v-2.2c0-4.6-3.2-6.9-9.4-6.9s-9.3 2.3-9.3 6.9v29.6c0 4.6 3.1 6.9 9.3 6.9 6.2 0 9.4-2.3 9.4-6.9V108c0-1.7.6-2.3 2.3-2.3h7.6c1.6 0 2.1.6 2.1 2.3v5.7zm32.1-34c0-7.7 5.7-15 22.3-15s22.3 7.3 22.3 15v34c0 7.7-5.7 15-22.3 15s-22.3-7.3-22.3-15v-34zm32.2 2.2c0-4.6-3.8-6.9-9.9-6.9-6.2 0-9.8 2.3-9.8 6.9v29.6c0 4.6 3.7 6.9 9.8 6.9 6.2 0 9.9-2.3 9.9-6.9V81.9zm49.6 46c-1.7 0-2.2-.7-2.2-2.4V67.8c0-1.7.6-2.4 2.2-2.4h16.8c16.6 0 22.2 6.2 22.2 13.9v5.4c0 4.5-2.1 8.1-6.9 10.3 6.2 2.2 9.7 6.1 9.7 11.1v7.3c0 7.7-5.6 14.5-22.2 14.5H368zm10.2-52.6v16h6.9c5.9 0 9.7-2.2 9.7-6.9v-3.2c0-4.6-3.8-5.9-9.9-5.9h-6.7zm0 25.4V118h9.5c6.2 0 10-2.2 10-6.8v-4.1c0-4-3.9-6.3-10-6.3h-9.5zm94.4-19.4c0-4.5-3-6.6-8.9-6.6-6 0-9 2.1-9 6.6v1.4c0 3.2 2.3 4.4 3.8 5l16 5.7c6.2 2.2 10.8 6.4 10.8 13.2v7.1c0 7.7-5.4 15-21.9 15-16.4 0-22-7.3-22-15v-5.8c0-1.7.6-2.4 2.2-2.4h7.7c1.7 0 2.2.7 2.2 2.4v4.1c0 4.5 3.5 6.6 9.7 6.6 6.2 0 9.7-2.1 9.7-6.6v-2.9c0-3.8-3.7-5.2-7.8-6.8L451 96.9c-4.4-1.7-8.4-6.3-8.4-11.9v-5.4c0-7.7 4.8-15 20.9-15 16.1 0 21.2 7.3 21.2 15v3.8c0 1.6-.6 2.3-2.3 2.3h-7.7c-1.6 0-2.1-.7-2.1-2.3v-2.1zM67.1 247.4c-1.7 0-2.2-.7-2.2-2.4v-57.7c0-1.7.6-2.4 2.2-2.4h31.4c1.6 0 2.3.6 2.3 2.2v5.8c0 1.7-.7 2.3-2.3 2.3H77.3v14.9H97c1.7 0 2.4.6 2.4 2.2v5.5c0 1.6-.7 2.2-2.4 2.2H77.3v17.1h22.1c1.7 0 2.3.6 2.3 2.2v5.8c0 1.7-.6 2.3-2.3 2.3H67.1zm112.5-2.3c0 1.6-.6 2.3-2.2 2.3h-7.3c-1.2 0-1.7-.3-2.1-1.1l-17.7-30.4c-2.5-4.1-3.6-7.2-3.7-7.4v36.7c0 1.6-.6 2.3-2.2 2.3h-7.3c-1.7 0-2.2-.7-2.2-2.3v-57.9c0-1.6.6-2.3 2.2-2.3h7.3c1 0 1.6.3 1.9.9l18.5 31.7c1.6 2.7 3.1 6.4 3.1 6.4v-36.8c0-1.6.6-2.3 2.2-2.3h7.3c1.7 0 2.2.7 2.2 2.3v57.9zm61.8-58.8l18.4 59.7c.3.9-.1 1.4-1.1 1.4h-4c-.9 0-1.4-.5-1.7-1.4l-5.1-16.4h-21l-5 16.4c-.3.9-.6 1.4-1.6 1.4h-3.7c-.9 0-1.3-.5-1-1.4l18.3-59.7c.3-.9.7-1.4 1.7-1.4h4c1.1 0 1.5.5 1.8 1.4zm-1.5 16.6c-.9-2.9-2.1-10.1-2.3-11.1-.1.6-1.2 7.4-2.3 10.9l-6.8 21.7h18.1l-6.7-21.5zm64.4 19V246c0 .9-.3 1.4-1.3 1.4h-3.9c-.9 0-1.3-.5-1.3-1.4v-59.7c0-.9.4-1.4 1.2-1.4h18.2c15.3 0 19.9 6.1 19.9 13.4v10.3c0 5.7-2.8 10.7-11.4 12.5l11.9 24.9c.4.8-.3 1.4-1.3 1.4h-3.9c-1 0-1.2-.6-1.7-1.4l-11.4-24.1h-15zm0-31.4v25.9h13c9.8 0 13.4-3.5 13.4-8.9v-8.2c0-5.3-3.6-8.8-13.4-8.8h-13zm100.3 57.2l12.3 11.3c.7.6.8 1.2.2 1.9l-2 2.1c-.5.6-1.2.6-1.8.1l-16.3-15c-14-.4-18.5-6.3-18.5-13.4v-37.1c0-7.4 4.8-13.4 19.9-13.4 15.3 0 19.9 6.1 19.9 13.4v37.1c0 6.3-3.4 11.6-13.7 13zm-6.2-5c9.7 0 13.4-3.5 13.4-8.9v-35.3c0-5.4-3.7-8.9-13.4-8.9s-13.3 3.5-13.3 8.9v35.3c-.1 5.4 3.6 8.9 13.3 8.9zM71.2 353.2c0 5.3 3.6 8.8 13.2 8.8 9.8 0 13.5-3.5 13.5-8.8v-47.4c0-.9.4-1.4 1.3-1.4h3.9c1 0 1.3.5 1.3 1.4v48.4c0 7.4-4.7 13.4-19.9 13.4-15.1 0-19.8-6.1-19.8-13.4v-48.4c0-.9.4-1.4 1.3-1.4h4c.9 0 1.3.5 1.3 1.4v47.4zm83.4 12.3c0 .9-.3 1.4-1.3 1.4h-3.9c-.9 0-1.3-.5-1.3-1.4v-59.7c0-.9.4-1.4 1.3-1.4h3.9c1 0 1.3.5 1.3 1.4v59.7zm77.2-61.1c.9 0 1.4.4 1.4 1.4v2.8c0 1-.5 1.4-1.4 1.4H216v55.5c0 .9-.4 1.4-1.3 1.4h-4c-1 0-1.4-.5-1.4-1.4V310h-15.8c-1 0-1.4-.4-1.4-1.4v-2.8c0-1 .4-1.4 1.4-1.4h38.3zm40.2 62.5c-.8 0-1.2-.5-1.2-1.4v-59.7c0-.9.4-1.4 1.3-1.4h31.3c.9 0 1.4.4 1.4 1.4v2.8c0 1-.5 1.4-1.4 1.4h-26.2v21.4h24.5c1 0 1.4.4 1.4 1.4v2.7c0 1-.4 1.4-1.4 1.4h-24.5v24.4h27.3c.9 0 1.4.4 1.4 1.3v2.9c0 1-.5 1.4-1.4 1.4H272zm107.5-62.5c.9 0 1.4.4 1.4 1.4v2.8c0 1-.5 1.4-1.4 1.4h-15.8v55.5c0 .9-.4 1.4-1.3 1.4h-4c-1 0-1.4-.5-1.4-1.4V310h-15.8c-1 0-1.4-.4-1.4-1.4v-2.8c0-1 .4-1.4 1.4-1.4h38.3zM71.2 472.7c0 5.3 3.6 8.8 13.2 8.8 9.8 0 13.5-3.5 13.5-8.8v-47.4c0-.9.4-1.4 1.3-1.4h3.9c1 0 1.3.5 1.3 1.4v48.4c0 7.4-4.7 13.4-19.9 13.4-15.1 0-19.8-6.1-19.8-13.4v-48.4c0-.9.4-1.4 1.3-1.4h4c.9 0 1.3.5 1.3 1.4v47.4zm83.4-11.8V485c0 .9-.3 1.4-1.3 1.4h-3.9c-.9 0-1.3-.5-1.3-1.4v-59.7c0-.9.4-1.4 1.2-1.4h18.2c15.3 0 19.9 6.1 19.9 13.4v10.3c0 5.7-2.8 10.7-11.4 12.5l12 24.9c.4.8-.3 1.4-1.3 1.4h-3.9c-1 0-1.2-.6-1.7-1.4l-11.4-24.1h-15.1zm0-31.4v25.9h13c9.8 0 13.4-3.5 13.4-8.9v-8.2c0-5.3-3.6-8.8-13.4-8.8h-13zm94.8-4.3l18.4 59.7c.3.9-.1 1.4-1.1 1.4h-4c-.9 0-1.4-.5-1.7-1.4l-5.1-16.4h-21l-5 16.4c-.3.9-.6 1.4-1.6 1.4h-3.7c-.9 0-1.3-.5-1-1.4l18.3-59.7c.3-.9.7-1.4 1.7-1.4h4c1.1.1 1.5.5 1.8 1.4zm-1.4 16.7c-.9-2.9-2.1-10.1-2.3-11.1-.1.6-1.2 7.4-2.3 10.9l-6.8 21.7h18.1l-6.7-21.5z" fill="currentColor"/></symbol><symbol id="jarquitetura-logo-type-expanded" viewBox="0 0 1654 185"><path d="M136.9 107.5c0 4.6 2.5 6.9 7.9 6.9s7.3-2.3 7.3-6.9V64c0-1.6.6-2.4 2.2-2.4h8c1.6 0 2.2.7 2.2 2.4v45.7c0 7.7-4.2 14.9-19.7 14.9-15.4 0-20.1-7.2-20.1-14.9v-5.5c0-1.6.6-2.3 2.3-2.3h7.7c1.6 0 2.2.6 2.2 2.3v3.3zm85.2-45.9c1.6 0 2.5.7 2.9 2.3l17 57.7c.5 1.5-.1 2.3-1.6 2.3h-8.2c-1.6 0-2.2-.8-2.7-2.3l-3.2-11.2h-17l-3.2 11.2c-.5 1.5-1.1 2.3-2.7 2.3H196c-1.6 0-2.2-.8-1.7-2.3l17.1-57.7c.5-1.6 1.2-2.3 2.8-2.3h7.9zm-1.5 28.9c-1.2-3.8-2.6-15.5-2.7-16.7-.2 1.2-1.7 12.7-2.8 16.6l-3.1 10.3h11.6l-3-10.2zm93.3 19.2c0 7.7-4.9 14.9-21.5 14.9s-21.5-7.2-21.5-14.9V75.8c0-7.7 4.9-14.9 21.5-14.9s21.5 7.2 21.5 14.9v4.4c0 1.6-.5 2.3-2.1 2.3h-7.6c-1.6 0-2.3-.6-2.3-2.3V78c0-4.6-3.2-6.9-9.3-6.9-6.1 0-9.3 2.3-9.3 6.9v29.5c0 4.6 3.1 6.9 9.3 6.9 6.1 0 9.3-2.3 9.3-6.9V104c0-1.6.6-2.3 2.3-2.3h7.6c1.6 0 2.1.6 2.1 2.3v5.7zm32-33.9c0-7.7 5.7-14.9 22.3-14.9s22.3 7.2 22.3 14.9v33.9c0 7.7-5.7 14.9-22.3 14.9s-22.3-7.2-22.3-14.9V75.8zm32.2 2.2c0-4.6-3.8-6.9-9.9-6.9-6.1 0-9.8 2.3-9.8 6.9v29.5c0 4.6 3.7 6.9 9.8 6.9 6.1 0 9.9-2.3 9.9-6.9V78zm49.3 45.9c-1.6 0-2.2-.7-2.2-2.4V64c0-1.6.5-2.4 2.2-2.4h16.8c16.6 0 22.2 6.1 22.2 13.8v5.4c0 4.5-2.1 8.1-6.9 10.3 6.2 2.2 9.7 6 9.7 11.1v7.2c0 7.7-5.6 14.5-22.2 14.5h-19.6zm10.2-52.4v15.9h6.9c5.9 0 9.6-2.2 9.6-6.9v-3.2c0-4.6-3.8-5.9-9.9-5.9h-6.6zm0 25.3V114h9.4c6.1 0 10-2.2 10-6.8v-4.1c0-3.9-3.8-6.3-10-6.3h-9.4zm94.2-19.3c0-4.5-3-6.6-8.9-6.6-6 0-9 2.1-9 6.6v1.4c0 3.2 2.3 4.4 3.8 4.9l15.9 5.7c6.2 2.2 10.8 6.4 10.8 13.2v7.1c0 7.7-5.4 14.9-21.8 14.9-16.3 0-21.9-7.2-21.9-14.9V104c0-1.6.6-2.4 2.2-2.4h7.7c1.6 0 2.2.7 2.2 2.4v4.1c0 4.5 3.5 6.6 9.7 6.6 6.1 0 9.7-2.1 9.7-6.6v-2.9c0-3.8-3.7-5.2-7.8-6.8L510.2 93c-4.4-1.6-8.3-6.3-8.3-11.8v-5.4c0-7.7 4.8-14.9 20.8-14.9s21.2 7.2 21.2 14.9v3.8c0 1.6-.6 2.3-2.3 2.3h-7.7c-1.6 0-2.1-.7-2.1-2.3v-2.1zm48.3 46.4c-1.6 0-2.2-.7-2.2-2.4V64c0-1.6.5-2.4 2.2-2.4h31.3c1.6 0 2.3.5 2.3 2.2v5.8c0 1.6-.7 2.3-2.3 2.3h-21.2v14.8h19.6c1.6 0 2.4.5 2.4 2.2v5.5c0 1.6-.7 2.2-2.4 2.2h-19.6v17h22.1c1.6 0 2.3.5 2.3 2.2v5.8c0 1.6-.6 2.3-2.3 2.3h-32.2zm112.1-2.3c0 1.6-.5 2.3-2.2 2.3h-7.2c-1.2 0-1.6-.3-2.1-1.1L663 92.5c-2.5-4.1-3.6-7.1-3.7-7.4v36.6c0 1.6-.6 2.3-2.2 2.3h-7.2c-1.6 0-2.2-.7-2.2-2.3V63.9c0-1.6.5-2.3 2.2-2.3h7.2c1 0 1.6.3 1.9.9l18.4 31.6c1.6 2.7 3.1 6.4 3.1 6.4V63.9c0-1.6.5-2.3 2.2-2.3h7.2c1.6 0 2.2.7 2.2 2.3v57.7zm64.4-60c.7 0 1.2.4 1.4 1.1l18.6 60.1c.3.7-.1 1.1-.8 1.1H773c-.7 0-1.1-.4-1.3-1.1l-5.6-17.8H744l-5.4 17.8c-.2.7-.5 1.1-1.3 1.1h-2.7c-.7 0-1.1-.4-.8-1.1l18.6-60.1c.2-.7.6-1.1 1.4-1.1h2.8zm.8 14.9c-.9-3-2.1-8.8-2.3-9.7-.1.6-1.2 6.5-2.1 9.5l-7.8 24.7H765l-7.6-24.5zm62.7 21.6v24.7c0 .7-.3 1.1-1 1.1h-2.7c-.7 0-1.1-.4-1.1-1.1V62.7c0-.7.4-1.1 1-1.1h17.9c14.7 0 19.1 5.8 19.1 12.9v10.6c0 5.9-2.8 10.7-11.7 12.4l12.6 25.3c.3.6-.2 1.1-1 1.1h-2.7c-.9 0-1.1-.5-1.4-1.1L836.9 98c-.9.1-1.8.1-2.7.1h-14.1zm0-32.3v28.1h14c10.7 0 14.3-3.8 14.3-9.4v-9.3c0-5.6-3.6-9.4-14.3-9.4h-14zm113.7 45.9c0 6.2-3.5 11.5-14 12.6l13.1 12c.5.5.6.9.1 1.5l-1.5 1.6c-.4.5-.9.5-1.5.1l-15.9-14.8c-14.3-.1-18.6-5.8-18.6-12.9v-38c0-7.1 4.4-12.9 19.1-12.9 14.7 0 19.2 5.8 19.2 12.9v37.9zm-33.4-.6c0 5.6 3.6 9.4 14.2 9.4 10.7 0 14.3-3.8 14.3-9.4V74.4c0-5.6-3.6-9.4-14.3-9.4-10.6 0-14.2 3.8-14.2 9.4v36.7zm81.6-.1c0 5.6 3.6 9.4 14.3 9.4 10.7 0 14.3-3.8 14.3-9.4V62.7c0-.7.4-1.1 1.1-1.1h2.7c.7 0 1 .4 1 1.1v49c0 7.1-4.4 12.9-19.1 12.9-14.7 0-19.1-5.8-19.1-12.9v-49c0-.7.4-1.1 1.1-1.1h2.7c.7 0 1 .4 1 1.1V111zm82.8 11.8c0 .7-.3 1.1-1 1.1h-2.7c-.7 0-1.1-.4-1.1-1.1V62.7c0-.7.4-1.1 1.1-1.1h2.7c.7 0 1 .4 1 1.1v60.1zm77.3-61.2c.7 0 1.1.3 1.1 1.1v2c0 .8-.4 1.1-1.1 1.1h-16.7v57c0 .7-.3 1.1-1 1.1h-2.7c-.8 0-1.1-.4-1.1-1.1v-57H1104c-.8 0-1.1-.3-1.1-1.1v-2c0-.8.3-1.1 1.1-1.1h38.1zm40.2 62.3c-.6 0-1-.4-1-1.1V62.7c0-.7.4-1.1 1.1-1.1h31.2c.7 0 1.1.3 1.1 1.1v2c0 .8-.4 1.1-1.1 1.1h-27.5v23.3h25.8c.7 0 1.1.3 1.1 1.1v1.9c0 .7-.4 1.1-1.1 1.1h-25.8v26.5h28.6c.7 0 1.1.3 1.1 1.1v2c0 .8-.4 1.1-1.1 1.1h-32.4zm107-62.3c.7 0 1.1.3 1.1 1.1v2c0 .8-.4 1.1-1.1 1.1h-16.7v57c0 .7-.3 1.1-1 1.1h-2.7c-.8 0-1.1-.4-1.1-1.1v-57h-16.6c-.8 0-1.1-.3-1.1-1.1v-2c0-.8.3-1.1 1.1-1.1h38.1zm43.6 49.4c0 5.6 3.6 9.4 14.3 9.4s14.3-3.8 14.3-9.4V62.7c0-.7.4-1.1 1.1-1.1h2.7c.7 0 1 .4 1 1.1v49c0 7.1-4.4 12.9-19.1 12.9-14.7 0-19.1-5.8-19.1-12.9v-49c0-.7.4-1.1 1.1-1.1h2.7c.7 0 1 .4 1 1.1V111zm82.8-12.9v24.7c0 .7-.3 1.1-1 1.1h-2.7c-.7 0-1.1-.4-1.1-1.1V62.7c0-.7.4-1.1 1-1.1h17.9c14.7 0 19.1 5.8 19.1 12.9v10.6c0 5.9-2.8 10.7-11.7 12.4l12.6 25.3c.3.6-.2 1.1-1 1.1h-2.7c-.9 0-1.1-.5-1.4-1.1L1432.4 98c-.9.1-1.8.1-2.7.1h-14zm0-32.3v28.1h14c10.7 0 14.3-3.8 14.3-9.4v-9.3c0-5.6-3.6-9.4-14.3-9.4h-14zm92.8-4.2c.7 0 1.2.4 1.4 1.1l18.6 60.1c.3.7-.1 1.1-.8 1.1h-2.8c-.7 0-1.1-.4-1.3-1.1L1518 105h-22.1l-5.4 17.8c-.2.7-.5 1.1-1.3 1.1h-2.7c-.7 0-1.1-.4-.8-1.1l18.6-60.1c.2-.7.6-1.1 1.4-1.1h2.8zm.7 14.9c-.9-3-2.1-8.8-2.3-9.7-.1.6-1.2 6.5-2.1 9.5L1497 101h19.8l-7.6-24.5z" fill="currentColor"/></symbol></svg>