<svg xmlns="http://www.w3.org/2000/svg" viewBox="0 0 100 100" enable-background="new 0 0 100 100"><path fill="#000" d="M50.1 99.9c27.6 0 50-22.4 50-50s-22.4-50-50-50-50 22.4-50 50 22.4 50 50 50"/><path fill="currentColor" d="M50.1 24.7c-13.8 0-25 11.2-25 25 0 10.2 6.2 19 15 22.9-.1-1.7 0-3.8.4-5.7.5-2 3.2-13.6 3.2-13.6s-.8-1.6-.8-4c0-3.7 2.1-6.5 4.8-6.5 2.3 0 3.4 1.7 3.4 3.8 0 2.3-1.5 5.7-2.2 8.9-.6 2.7 1.3 4.8 3.9 4.8 4.7 0 7.9-6.1 7.9-13.3 0-5.5-3.7-9.6-10.4-9.6-7.6 0-12.3 5.7-12.3 12 0 2.2.6 3.7 1.6 4.9.5.5.5.8.4 1.4-.1.5-.4 1.6-.5 2-.2.6-.7.9-1.3.6-3.5-1.4-5.1-5.3-5.1-9.6 0-7.1 6-15.6 17.9-15.6 9.5 0 15.8 6.9 15.8 14.3 0 9.8-5.5 17.1-13.5 17.1-2.7 0-5.2-1.5-6.1-3.1 0 0-1.5 5.8-1.8 6.9-.4 2-1.4 3.9-2.4 5.4 2.2.7 4.6 1 7.1 1 13.8 0 25-11.2 25-25s-11.2-25-25-25"/></svg>
