<svg xmlns="http://www.w3.org/2000/svg" viewBox="0 0 36 36">
    <path fill="#000" d="M17.814 35.81c9.66 0 17.494-7.833 17.494-17.494 0-9.662-7.834-17.494-17.494-17.494C8.15.822.32 8.654.32 18.316c0 9.66 7.83 17.493 17.494 17.493"/>
    <path fill="currentColor" d="M26.59 13.733c-.644.285-1.34.48-2.065.566.743-.45 1.313-1.15 1.58-1.99-.694.41-1.464.71-2.282.87-.655-.7-1.59-1.138-2.625-1.138-1.984 0-3.594 1.61-3.594 3.594 0 .283.03.557.093.82-2.99-.15-5.637-1.58-7.41-3.757-.31.533-.488 1.15-.488 1.81 0 1.244.63 2.345 1.6 2.99-.59-.017-1.15-.18-1.63-.448v.044c0 1.742 1.24 3.195 2.88 3.525-.303.085-.62.127-.95.127-.23 0-.457-.02-.675-.063.456 1.428 1.784 2.468 3.36 2.495-1.23.965-2.783 1.54-4.467 1.54-.29 0-.578-.018-.858-.05 1.59 1.02 3.48 1.614 5.51 1.614 6.615 0 10.23-5.477 10.23-10.23 0-.155-.003-.31-.01-.465.702-.507 1.312-1.14 1.794-1.86"/>
</svg>
