<svg xmlns="http://www.w3.org/2000/svg" viewBox="0 0 100 100" enable-background="new 0 0 100 100"><path fill="#000" d="M50 100c27.6 0 50-22.4 50-50s-22.4-50-50-50-50 22.4-50 50 22.4 50 50 50"/><path fill="currentColor" d="M75 38.4c-.2 4.9-3.6 11.5-10.2 19.9-6.8 8.9-12.6 13.3-17.3 13.3-2.9 0-5.4-2.7-7.4-8.1l-4-14.8c-1.5-5.4-3.1-8.1-4.8-8.1-.4 0-1.7.8-3.9 2.4l-2.4-3c2.5-2.2 4.9-4.3 7.3-6.5 3.3-2.8 5.7-4.3 7.4-4.5 3.9-.4 6.3 2.3 7.2 8 1 6.1 1.6 9.9 2 11.4 1.1 5.1 2.4 7.6 3.7 7.6 1 0 2.6-1.6 4.7-4.9 2.1-3.3 3.2-5.8 3.4-7.5.3-2.8-.8-4.3-3.4-4.3-1.2 0-2.4.3-3.7.8 2.5-8 7.2-11.9 14.1-11.7 5.1.2 7.6 3.5 7.3 10z"/></svg>
